# Alias OBJ Model File
# Exported from SketchUp, (c) 2000-2006 Google, Inc.
# File units = meters

mtllib target.mtl

g Mesh1 Model

usemtl FrontColor
v 0 0 -0
vt 0 0
vn 0 -1 -0
v 0 0 -0.1
vt 0 3.93701
v 0.5 0 -0.1
vt -19.685 3.93701
v 0.5 0 -0
vt -19.685 0
f 1/1/1 2/2/1 3/3/1 4/4/1 

v -9.02389e-017 1.01308 -0
vt 3.57462e-047 39.8852
vn -1 -8.90735e-017 -1.00617e-032
v -9.02389e-017 1.01308 -0.1
vt -3.93701 39.8852
vt -3.93701 3.52845e-048
f 5/5/2 6/6/2 2/7/2 1/1/2 

vt 0 33.6878
vn -0.844619 0.535368 -0
v 0.011046 1.03051 -0
vt 0 34.5001
vn -0.821845 0.569711 -0
v 0.011046 1.03051 -0.1
vt -3.93701 34.5001
vt -3.93701 33.6878
f 5/8/3 7/9/4 8/10/4 6/11/3 

vt 0.434882 40.5713
vn 0 0 1
vt -3.55271e-015 39.8852
vt 19.685 0
v 0.5 1.01308 -0
vt 19.685 39.8852
v 0.491272 1.03247 -0
vt 19.3414 40.6485
v 0.480501 1.0508 -0
vt 18.9173 41.3701
v 0.467813 1.06786 -0
vt 18.4178 42.0417
v 0.453356 1.08345 -0
vt 17.8487 42.6555
v 0.437301 1.09739 -0
vt 17.2166 43.2042
v 0.419834 1.10951 -0
vt 16.5289 43.6814
v 0.40116 1.11967 -0
vt 15.7937 44.0815
v 0.381497 1.12776 -0
vt 15.0196 44.3999
v 0.361077 1.13367 -0
vt 14.2156 44.6328
v 0.340136 1.13735 -0
vt 13.3912 44.7775
v 0.318921 1.13874 -0
vt 12.556 44.8323
v 0.29768 1.13783 -0
vt 11.7197 44.7966
v 0.342111 1.15624 -0
vt 13.4689 45.5212
v 0.380264 1.18551 -0
vt 14.971 46.6738
v 0.409541 1.22367 -0
vt 16.1236 48.1759
v 0.427944 1.2681 -0
vt 16.8482 49.9251
v 0.434222 1.31578 -0
vt 17.0953 51.8023
v 0.427944 1.36346 -0
vt 16.8482 53.6795
v 0.409541 1.40789 -0
vt 16.1236 55.4287
v 0.380264 1.44604 -0
vt 14.971 56.9308
v 0.342111 1.47532 -0
vt 13.4689 58.0834
v 0.29768 1.49372 -0
vt 11.7197 58.808
v 0.25 1.5 -0
vt 9.84252 59.0551
v 0.20232 1.49372 -0
vt 7.96535 58.808
v 0.157889 1.47532 -0
vt 6.21611 58.0834
v 0.119736 1.44604 -0
vt 4.714 56.9308
v 0.0904595 1.40789 -0
vt 3.5614 55.4287
v 0.0720557 1.36346 -0
vt 2.83684 53.6795
v 0.0657785 1.31578 -0
vt 2.5897 51.8023
v 0.0720557 1.2681 -0
vt 2.83684 49.9251
v 0.0904595 1.22367 -0
vt 3.5614 48.1759
v 0.119736 1.18551 -0
vt 4.714 46.6738
v 0.157889 1.15624 -0
vt 6.21611 45.5212
v 0.20232 1.13783 -0
vt 7.96535 44.7966
v 0.181789 1.13579 -0
vt 7.15704 44.7162
v 0.161496 1.13206 -0
vt 6.3581 44.5694
v 0.141578 1.12668 -0
vt 5.57395 44.3574
v 0.122172 1.11967 -0
vt 4.80992 44.0816
v 0.103408 1.11109 -0
vt 4.07119 43.7438
v 0.0854146 1.101 -0
vt 3.36278 43.3463
v 0.0683133 1.08945 -0
vt 2.6895 42.8918
v 0.0522204 1.07654 -0
vt 2.05592 42.3835
v 0.0372451 1.06235 -0
vt 1.46634 41.8247
v 0.0234892 1.04697 -0
vt 0.924771 41.2193
f 7/12/5 5/13/5 1/1/5 4/14/5 9/15/5 10/16/5 11/17/5 12/18/5 13/19/5 14/20/5 15/21/5 16/22/5 17/23/5 18/24/5 19/25/5 20/26/5 21/27/5 22/28/5 23/29/5 24/30/5 25/31/5 26/32/5 27/33/5 28/34/5 29/35/5 30/36/5 31/37/5 32/38/5 33/39/5 34/40/5 35/41/5 36/42/5 37/43/5 38/44/5 39/45/5 40/46/5 41/47/5 42/48/5 43/49/5 44/50/5 45/51/5 46/52/5 47/53/5 48/54/5 49/55/5 50/56/5 51/57/5 52/58/5 53/59/5 

vt 3.93701 0
vn 1 0 -0
v 0.5 1.01308 -0.1
vt 3.93701 39.8852
vt 0 39.8852
f 3/60/6 54/61/6 9/62/6 4/1/6 

vt -19.685 -2.31184e-017
vn -1.09375e-017 5.87208e-018 -1
vt -4.30611e-017 -2.31184e-017
vt 3.50965e-015 39.8852
vt -0.434882 40.5713
v 0.0234892 1.04697 -0.1
vt -0.924771 41.2193
v 0.0372451 1.06235 -0.1
vt -1.46634 41.8247
v 0.0522204 1.07654 -0.1
vt -2.05592 42.3835
v 0.0683133 1.08945 -0.1
vt -2.6895 42.8918
v 0.0854146 1.101 -0.1
vt -3.36278 43.3463
v 0.103408 1.11109 -0.1
vt -4.07119 43.7438
v 0.122172 1.11967 -0.1
vt -4.80992 44.0816
v 0.141578 1.12668 -0.1
vt -5.57395 44.3574
v 0.161496 1.13206 -0.1
vt -6.3581 44.5694
v 0.181789 1.13579 -0.1
vt -7.15704 44.7162
v 0.20232 1.13783 -0.1
vt -7.96535 44.7966
v 0.157889 1.15624 -0.1
vt -6.21611 45.5212
v 0.119736 1.18551 -0.1
vt -4.714 46.6738
v 0.0904595 1.22367 -0.1
vt -3.5614 48.1759
v 0.0720557 1.2681 -0.1
vt -2.83684 49.9251
v 0.0657785 1.31578 -0.1
vt -2.5897 51.8023
v 0.0720557 1.36346 -0.1
vt -2.83684 53.6795
v 0.0904595 1.40789 -0.1
vt -3.5614 55.4287
v 0.119736 1.44604 -0.1
vt -4.714 56.9308
v 0.157889 1.47532 -0.1
vt -6.21611 58.0834
v 0.20232 1.49372 -0.1
vt -7.96535 58.808
v 0.25 1.5 -0.1
vt -9.84252 59.0551
v 0.29768 1.49372 -0.1
vt -11.7197 58.808
v 0.342111 1.47532 -0.1
vt -13.4689 58.0834
v 0.380264 1.44604 -0.1
vt -14.971 56.9308
v 0.409541 1.40789 -0.1
vt -16.1236 55.4287
v 0.427944 1.36346 -0.1
vt -16.8482 53.6795
v 0.434222 1.31578 -0.1
vt -17.0953 51.8023
v 0.427944 1.2681 -0.1
vt -16.8482 49.9251
v 0.409541 1.22367 -0.1
vt -16.1236 48.1759
v 0.380264 1.18551 -0.1
vt -14.971 46.6738
v 0.342111 1.15624 -0.1
vt -13.4689 45.5212
v 0.29768 1.13783 -0.1
vt -11.7197 44.7966
v 0.318921 1.13874 -0.1
vt -12.556 44.8323
v 0.340136 1.13735 -0.1
vt -13.3912 44.7775
v 0.361077 1.13367 -0.1
vt -14.2156 44.6328
v 0.381497 1.12776 -0.1
vt -15.0196 44.3999
v 0.40116 1.11967 -0.1
vt -15.7937 44.0815
v 0.419834 1.10951 -0.1
vt -16.5289 43.6814
v 0.437301 1.09739 -0.1
vt -17.2166 43.2042
v 0.453356 1.08345 -0.1
vt -17.8487 42.6555
v 0.467813 1.06786 -0.1
vt -18.4178 42.0417
v 0.480501 1.0508 -0.1
vt -18.9173 41.3701
v 0.491272 1.03247 -0.1
vt -19.3414 40.6485
vt -19.685 39.8852
f 3/63/7 2/64/7 6/65/7 8/66/7 55/67/7 56/68/7 57/69/7 58/70/7 59/71/7 60/72/7 61/73/7 62/74/7 63/75/7 64/76/7 65/77/7 66/78/7 67/79/7 68/80/7 69/81/7 70/82/7 71/83/7 72/84/7 73/85/7 74/86/7 75/87/7 76/88/7 77/89/7 78/90/7 79/91/7 80/92/7 81/93/7 82/94/7 83/95/7 84/96/7 85/97/7 86/98/7 87/99/7 88/100/7 89/101/7 90/102/7 91/103/7 92/104/7 93/105/7 94/106/7 95/107/7 96/108/7 97/109/7 98/110/7 54/111/7 

vt 0 32.625
vt 0 33.4373
vn -0.772152 0.635438 -0
vt -3.93701 33.4373
vt -3.93701 32.625
f 7/112/4 53/113/8 55/114/8 8/115/4 

vt 0 31.338
vt 0 32.1503
vn -0.717216 0.696851 -0
vt -3.93701 32.1503
vt -3.93701 31.338
f 53/116/8 52/117/9 56/118/9 55/119/8 

vt 0 29.8354
vt 0 30.6477
vn -0.65741 0.753533 -0
vt -3.93701 30.6477
vt -3.93701 29.8354
f 52/120/9 51/121/10 57/122/10 56/123/9 

vt 0 28.1275
vt 0 28.9398
vn -0.593141 0.805098 -0
vt -3.93701 28.9398
vt -3.93701 28.1275
f 51/124/10 50/125/11 58/126/11 57/127/10 

vt 0 26.2258
vt 0 27.0381
vn -0.524845 0.851198 -0
vt -3.93701 27.0381
vt -3.93701 26.2258
f 50/128/11 49/129/12 59/130/12 58/131/11 

vt 0 24.1433
vt 0 24.9557
vn -0.452986 0.891518 -0
vt -3.93701 24.9557
vt -3.93701 24.1433
f 49/132/12 48/133/13 60/134/13 59/135/12 

vt 0 21.8942
vt 0 22.7065
vn -0.378051 0.925785 -0
vt -3.93701 22.7065
vt -3.93701 21.8942
f 48/136/13 47/137/14 61/138/14 60/139/13 

vt 0 19.4937
vt 0 20.306
vn -0.300549 0.953766 -0
vt -3.93701 20.306
vt -3.93701 19.4937
f 47/140/14 46/141/15 62/142/15 61/143/14 

vt 0 16.958
vt 0 17.7703
vn -0.221006 0.975272 -0
vt -3.93701 17.7703
vt -3.93701 16.958
f 46/144/15 45/145/16 63/146/16 62/147/15 

vt 0 14.3044
vt 0 15.1167
vn -0.139963 0.990157 -0
vt -3.93701 15.1167
vt -3.93701 14.3044
f 45/148/16 44/149/17 64/150/17 63/151/16 

vt 0 11.551
vt 0 12.3633
vn -0.0990506 0.995082 -0
vt -3.93701 12.3633
vt -3.93701 11.551
f 44/152/17 43/153/18 65/154/18 64/155/17 

vt 0 9.7839
vn -0.382683 -0.92388 -0
vt 0 11.6773
vn -0.5 -0.866025 -0
vt -3.93701 11.6773
vt -3.93701 9.7839
f 43/156/19 42/157/20 66/158/20 65/159/19 

vt 0 22.78
vt 0 24.6733
vn -0.707107 -0.707107 -0
vt -3.93701 24.6733
vt -3.93701 22.78
f 42/160/20 41/161/21 67/162/21 66/163/20 

vt 0 34.1591
vt 0 36.0525
vn -0.866025 -0.5 -0
vt -3.93701 36.0525
vt -3.93701 34.1591
f 41/164/21 40/165/22 68/166/22 67/167/21 

vt 0 43.1458
vt 0 45.0392
vn -0.965926 -0.258819 -0
vt -3.93701 45.0392
vt -3.93701 43.1458
f 40/168/22 39/169/23 69/170/23 68/171/22 

vt 0 49.1277
vt 0 51.0211
vn -1 -2.23961e-016 -0
vt -3.93701 51.0211
vt -3.93701 49.1277
f 39/172/23 38/173/24 70/174/24 69/175/23 

vt 0 51.6972
vt 0 53.5905
vn -0.965926 0.258819 -0
vt -3.93701 53.5905
vt -3.93701 51.6972
f 38/176/24 37/177/25 71/178/25 70/179/24 

vt 0 50.679
vt 0 52.5723
vn -0.866025 0.5 -0
vt -3.93701 52.5723
vt -3.93701 50.679
f 37/180/25 36/181/26 72/182/26 71/183/25 

vt 0 46.1426
vt 0 48.036
vn -0.707107 0.707107 -0
vt -3.93701 48.036
vt -3.93701 46.1426
f 36/184/26 35/185/27 73/186/27 72/187/26 

vt 0 38.3972
vt 0 40.2905
vn -0.5 0.866025 -0
vt -3.93701 40.2905
vt -3.93701 38.3972
f 35/188/27 34/189/28 74/190/28 73/191/27 

vt 0 27.9705
vt 0 29.8639
vn -0.258819 0.965926 -0
vt -3.93701 29.8639
vt -3.93701 27.9705
f 34/192/28 33/193/29 75/194/29 74/195/28 

vt 0 15.5732
vt 0 17.4666
vn -0.130526 0.991445 -0
vt -3.93701 17.4666
vt -3.93701 15.5732
f 33/196/29 32/197/30 76/198/30 75/199/29 

vt 0 -2.05008
vn 0.130526 0.991445 -0
vt 0 -3.94344
vn 0.258819 0.965926 -0
vt 3.93701 -3.94344
vt 3.93701 -2.05008
f 32/200/31 31/201/32 77/202/32 76/203/31 

vt 0 11.6773
vt 0 9.7839
vn 0.5 0.866025 -0
vt 3.93701 9.7839
vt 3.93701 11.6773
f 31/204/32 30/205/33 78/206/33 77/207/32 

vt 0 24.6733
vt 0 22.78
vn 0.707107 0.707107 -0
vt 3.93701 22.78
vt 3.93701 24.6733
f 30/208/33 29/209/34 79/210/34 78/211/33 

vt 0 36.0525
vt 0 34.1591
vn 0.866025 0.5 -0
vt 3.93701 34.1591
vt 3.93701 36.0525
f 29/212/34 28/213/35 80/214/35 79/215/34 

vt 0 45.0392
vn 0.965926 0.258819 -0
vt 3.93701 43.1458
vt 3.93701 45.0392
f 28/216/35 27/168/36 81/217/36 80/218/35 

vt 0 51.0211
vt 3.93701 49.1277
vt 3.93701 51.0211
f 27/219/36 26/172/6 82/220/6 81/221/36 

vt 0 53.5905
vt 0 51.6972
vn 0.965926 -0.258819 -0
vt 3.93701 51.6972
vt 3.93701 53.5905
f 26/222/6 25/223/37 83/224/37 82/225/6 

vt 0 52.5723
vt 0 50.679
vn 0.866025 -0.5 -0
vt 3.93701 50.679
vt 3.93701 52.5723
f 25/226/37 24/227/38 84/228/38 83/229/37 

vt 0 48.036
vn 0.707107 -0.707107 -0
vt 3.93701 46.1426
vt 3.93701 48.036
f 24/230/38 23/184/39 85/231/39 84/232/38 

vt 0 40.2905
vt 0 38.3972
vn 0.5 -0.866025 -0
vt 3.93701 38.3972
vt 3.93701 40.2905
f 23/233/39 22/234/40 86/235/40 85/236/39 

vt 0 29.8639
vt 0 27.9705
vn 0.382683 -0.92388 -0
vt 3.93701 27.9705
vt 3.93701 29.8639
f 22/237/40 21/238/41 87/239/41 86/240/40 

vt 0 13.6206
vn -0.042673 0.999089 -0
vt 0 14.4576
vn 0.0114246 0.999935 -0
vt -3.93701 14.4576
vt -3.93701 13.6206
f 21/241/42 20/242/43 88/243/43 87/244/42 

vt 0 -9.59298
vt 0 -10.43
vn 0.119361 0.992851 -0
vt 3.93701 -10.43
vt 3.93701 -9.59298
f 20/245/43 19/246/44 89/247/44 88/248/43 

vt 0 -5.44821
vt 0 -6.28524
vn 0.225901 0.97415 -0
vt 3.93701 -6.28524
vt 3.93701 -5.44821
f 19/249/44 18/250/45 90/251/45 89/252/44 

vt 0 -1.23479
vt 0 -2.07182
vn 0.329798 0.944051 -0
vt 3.93701 -2.07182
vt 3.93701 -1.23479
f 18/253/45 17/254/46 91/255/46 90/256/45 

vt 0 2.99797
vt 0 2.16094
vn 0.429836 0.902907 -0
vt 3.93701 2.16094
vt 3.93701 2.99797
f 17/257/46 16/258/47 92/259/47 91/260/46 

vt 0 7.20055
vt 0 6.36353
vn 0.524845 0.851198 -0
vt 3.93701 6.36353
vt 3.93701 7.20055
f 16/261/47 15/262/48 93/263/48 92/264/47 

vt 0 11.3238
vt 0 10.4868
vn 0.613713 0.789529 -0
vt 3.93701 10.4868
vt 3.93701 11.3238
f 15/265/48 14/266/49 94/267/49 93/268/48 

vt 0 15.3194
vt 0 14.4824
vn 0.6954 0.718623 -0
vt 3.93701 14.4824
vt 3.93701 15.3194
f 14/269/49 13/270/50 95/271/50 94/272/49 

vt 0 19.1407
vt 0 18.3037
vn 0.768951 0.639308 -0
vt 3.93701 18.3037
vt 3.93701 19.1407
f 13/273/50 12/274/51 96/275/51 95/276/50 

vt 0 22.7429
vt 0 21.9059
vn 0.833504 0.552513 -0
vt 3.93701 21.9059
vt 3.93701 22.7429
f 12/277/51 11/278/52 97/279/52 96/280/51 

vt 0 26.0839
vt 0 25.2469
vn 0.888305 0.459253 -0
vt 3.93701 25.2469
vt 3.93701 26.0839
f 11/281/52 10/282/53 98/283/53 97/284/52 

vt 0 29.1247
vt 0 28.2876
vn 0.911844 0.410538 -0
vt 3.93701 28.2876
vt 3.93701 29.1247
f 10/285/53 9/286/54 54/287/54 98/288/53 

